<?xml version="1.0" encoding="utf-8"?>
<!-- Generator: Adobe Illustrator 27.0.0, SVG Export Plug-In . SVG Version: 6.00 Build 0)  -->
<svg version="1.1" id="Camada_1" xmlns="http://www.w3.org/2000/svg" xmlns:xlink="http://www.w3.org/1999/xlink" x="0px" y="0px"
	 viewBox="0 0 1080 1080" style="enable-background:new 0 0 1080 1080;" xml:space="preserve">
<style type="text/css">
	.st0{fill:#F10505;}
</style>
<g>
	<path class="st0" d="M510.7,562.6v-92.5h-34.6v92.5c0,2.5,2,4.5,4.5,4.5h25.5C508.7,567.2,510.7,565.1,510.7,562.6z"/>
	<path class="st0" d="M512.7,597.5h71.5v-34.6h-71.5c-2,0-3.7,1.6-3.7,3.7v27.2C509.1,595.8,510.7,597.5,512.7,597.5z"/>
	<path class="st0" d="M509.1,536.8c0,0-0.8,27.8,29.5,34.6c-2.5,7.6-22.8,23.6-22.8,23.6s5.1-23.6-32-32
		C466.1,560.4,509.1,536.8,509.1,536.8z"/>
	<path class="st0" d="M569.9,518.8v90.3c0,0.1,0.1,0.1,0.1,0.1h34.3c0.1,0,0.1-0.1,0.1-0.1v-90.3c0-3.1-2.5-5.6-5.6-5.6h-23.4
		C572.4,513.2,569.9,515.7,569.9,518.8z"/>
	<path class="st0" d="M567.2,482.9h-70.8v34.6h70.8c2.4,0,4.4-2,4.4-4.4v-25.7C571.6,484.9,569.6,482.9,567.2,482.9z"/>
	<path class="st0" d="M571.6,543.6c0,0,0.8-27.8-29.5-34.6c2.5-7.6,22.8-23.6,22.8-23.6s-5.1,23.6,32,32
		C614.6,520,571.6,543.6,571.6,543.6z"/>
</g>
</svg>
