<?xml version="1.0" encoding="utf-8"?>
<!-- Generator: Adobe Illustrator 27.0.0, SVG Export Plug-In . SVG Version: 6.00 Build 0)  -->
<svg version="1.1" id="Camada_1" xmlns="http://www.w3.org/2000/svg" xmlns:xlink="http://www.w3.org/1999/xlink" x="0px" y="0px"
	 viewBox="0 0 1080 1080" style="enable-background:new 0 0 1080 1080;" xml:space="preserve">
<g>
	<path d="M440.7,617.4V306H324.4v311.4c0,8.4,6.8,15.2,15.2,15.2h85.9C433.9,632.6,440.7,625.8,440.7,617.4z"/>
	<path d="M447.4,734.8h240.8V618.5H447.4c-6.8,0-12.4,5.5-12.4,12.4v91.6C435,729.2,440.6,734.8,447.4,734.8z"/>
	<path d="M435,530.5c0,0-2.8,93.6,99.3,116.3c-8.5,25.5-76.6,79.5-76.6,79.5s17-79.5-107.8-107.8C290.3,609.9,435,530.5,435,530.5z"
		/>
	<path d="M640,469.7v304c0,0.3,0.2,0.5,0.5,0.5h115.4c0.3,0,0.5-0.2,0.5-0.5v-304c0-10.3-8.4-18.7-18.7-18.7h-78.9
		C648.3,451,640,459.4,640,469.7z"/>
	<path d="M630.7,348.9H392.5v116.3h238.3c8.2,0,14.9-6.7,14.9-14.9v-86.5C645.6,355.6,639,348.9,630.7,348.9z"/>
	<path d="M645.6,553.2c0,0,2.8-93.6-99.3-116.3c8.5-25.5,76.6-79.5,76.6-79.5s-17,79.5,107.8,107.8
		C790.4,473.7,645.6,553.2,645.6,553.2z"/>
</g>
</svg>
