<?xml version="1.0" encoding="utf-8"?>
<!-- Generator: Adobe Illustrator 27.0.0, SVG Export Plug-In . SVG Version: 6.00 Build 0)  -->
<svg version="1.1" id="Camada_1" xmlns="http://www.w3.org/2000/svg" xmlns:xlink="http://www.w3.org/1999/xlink" x="0px"
	y="0px" viewBox="0 0 1080 1080" style="enable-background:new 0 0 1080 1080;" xml:space="preserve">
	<style type="text/css">
		.st0 {
			fill: #F10505;
		}
	</style>
	<g>
		<path class="st0"
			d="M401.2,647.5V215H239.7v432.5c0,11.7,9.5,21.1,21.1,21.1h119.3C391.8,668.6,401.2,659.1,401.2,647.5z" />
		<path class="st0"
			d="M410.6,810.5H745V648.9H410.6c-9.5,0-17.2,7.7-17.2,17.2v127.1C393.3,802.8,401,810.5,410.6,810.5z" />
		<path class="st0" d="M393.3,526.8c0,0-3.9,130,137.9,161.6c-11.8,35.5-106.4,110.3-106.4,110.3s23.6-110.3-149.7-149.7
		C192.4,637.1,393.3,526.8,393.3,526.8z" />
		<path class="st0" d="M678,442.4v422.1c0,0.4,0.3,0.7,0.7,0.7h160.2c0.4,0,0.7-0.3,0.7-0.7V442.4c0-14.3-11.6-26-26-26H703.9
		C689.6,416.4,678,428,678,442.4z" />
		<path class="st0"
			d="M665.1,274.6H334.2v161.6h330.9c11.4,0,20.7-9.3,20.7-20.7V295.3C685.8,283.8,676.6,274.6,665.1,274.6z" />
		<path class="st0" d="M685.8,558.3c0,0,3.9-130-137.9-161.6c11.8-35.5,106.4-110.3,106.4-110.3s-23.6,110.3,149.7,149.7
		C886.8,447.9,685.8,558.3,685.8,558.3z" />
	</g>
</svg>